PathFileType	4	(X/Y/Z)	Run_300 01
DataRate	CameraRate	NumFrames	NumMarkers	Units	OrigDataRate	OrigDataStartFrame	OrigNumFrames
100	100	6	42	mm	100	469	128
Frame#	Time	LASI			RASI			LPSI			RPSI			RTH1			RTH2			RTH3			LTH1			LTH2			LTH3			RTB1			RTB2			RTB3			LTB1			LTB2			LTB3			RCAL			RTOE			RMT5			LCAL			LTOE			LACR			RACR			CLAV			C7			RUA1			RUA2			RUA3			RLEL			RMEL			LUA1			LUA2			LUA3			LLEL			LMEL			RFAsuperior			RFAradius			RFAulna			LFAsuperior			LFAradius			LFAulna			LMT5		
		X1	Y1	Z1	X2	Y2	Z2	X3	Y3	Z3	X4	Y4	Z4	X5	Y5	Z5	X6	Y6	Z6	X7	Y7	Z7	X8	Y8	Z8	X9	Y9	Z9	X10	Y10	Z10	X11	Y11	Z11	X12	Y12	Z12	X13	Y13	Z13	X14	Y14	Z14	X15	Y15	Z15	X16	Y16	Z16	X17	Y17	Z17	X18	Y18	Z18	X19	Y19	Z19	X20	Y20	Z20	X21	Y21	Z21	X22	Y22	Z22	X23	Y23	Z23	X24	Y24	Z24	X25	Y25	Z25	X26	Y26	Z26	X27	Y27	Z27	X28	Y28	Z28	X29	Y29	Z29	X30	Y30	Z30	X31	Y31	Z31	X32	Y32	Z32	X33	Y33	Z33	X34	Y34	Z34	X35	Y35	Z35	X36	Y36	Z36	X37	Y37	Z37	X38	Y38	Z38	X39	Y39	Z39	X40	Y40	Z40	X41	Y41	Z41	X42	Y42	Z42	

469	  4.690000	726.551371	1036.025298	-438.567188	735.048671	1004.511786	-181.032891	552.086720	1111.378709	-347.416120	556.289745	1101.478836	-263.270624	645.117770	881.589357	-130.939027	665.366216	739.218042	-151.124940	563.561929	653.209443	-169.177230	694.142359	936.417661	-501.531971	811.452257	869.517715	-477.633527	809.757076	716.790833	-477.895790	523.989181	404.304931	-231.605135	430.640873	342.802816	-183.954675	403.478738	244.290790	-245.246364	845.138779	514.919825	-405.927541	748.651826	492.113604	-467.877226	691.016480	378.824398	-387.326197	219.908150	195.693113	-272.771898	405.887862	 68.548918	-288.493181	363.112415	 50.727175	-204.528204	499.542675	362.084880	-366.263239	659.243973	193.138685	-366.319473	704.139239	1578.977644	-437.803576	727.082928	1522.686090	-109.127374	795.542703	1500.291591	-263.936430	657.776675	1580.810040	-282.385863	678.213882	1405.769558	-34.331147	600.616262	1333.751288	-53.709323	647.139797	1289.855603	-11.590971	635.331128	1195.997202	  8.357036	597.382140	1178.753698	-64.574857	617.788672	1533.309176	-536.306960	529.977855	1488.465214	-531.584699	550.500669	1460.874022	-606.357844	509.013785	1393.826845	-656.482893	445.890971	1388.855029	-609.734772	706.074201	1158.243771	-10.046045	884.735033	1167.540200	-110.924959	864.716714	1100.009097	-93.280512	543.905062	1272.540268	-632.230011	612.468819	1174.109234	-531.293600	559.548310	1144.751774	-562.031983	612.919120	188.178981	-444.584127	
470	  4.700000	729.067316	1043.712529	-438.956047	737.665199	1010.408958	-181.940693	554.781953	1118.936513	-347.006309	559.719941	1108.592730	-262.411018	645.168275	887.934220	-131.438302	660.293383	745.123668	-152.303352	554.986837	662.999526	-169.320895	696.958964	944.843154	-500.800594	812.972647	876.946011	-476.865578	811.536651	723.948536	-476.556370	510.006732	414.518862	-230.411707	417.076110	353.553271	-180.856377	389.728932	254.024363	-241.266459	855.654262	518.747481	-405.010657	760.772787	488.435645	-466.037445	713.817647	369.808337	-385.652715	208.179710	214.241067	-266.829022	381.498038	 70.180553	-286.841154	336.713519	 52.965970	-203.472511	524.408391	336.800705	-362.676795	697.596855	182.090584	-362.885694	703.806681	1586.530167	-438.339847	729.358053	1530.900812	-111.172408	795.574543	1508.071216	-266.828726	658.560259	1587.978996	-283.514328	680.826261	1414.123253	-35.576416	603.060876	1342.544730	-55.646970	649.234593	1298.653619	-12.881524	638.452791	1204.487794	  6.531449	600.113216	1187.153145	-66.340085	615.442273	1544.099531	-535.333869	527.015874	1500.826634	-528.846420	544.736849	1473.956894	-604.445479	500.402132	1407.979286	-654.217037	438.465194	1404.142505	-605.765349	709.672320	1168.466906	-13.052643	886.836086	1183.333313	-116.018844	868.480514	1115.090866	-99.619357	534.063280	1286.383617	-630.782436	603.729053	1187.033262	-530.803305	549.274179	1158.380652	-559.627921	650.806031	171.782330	-440.369605	
471	  4.710000	731.623705	1050.311214	-438.957004	740.289310	1015.779071	-183.461401	557.774358	1125.285622	-346.313923	563.329803	1115.443309	-261.440983	645.559185	893.819234	-131.927149	656.566502	750.697935	-153.760397	548.452276	671.973962	-169.409812	698.908174	951.866751	-500.074440	813.634005	882.470297	-476.113675	811.845938	729.237702	-475.023318	498.026939	424.163027	-229.985339	405.626125	363.896513	-178.454580	377.141762	263.886866	-238.256634	864.738409	521.287858	-404.188059	772.073777	483.272131	-464.350833	736.377871	360.405631	-384.008111	197.784487	233.611354	-260.999771	358.958409	 73.768740	-284.095724	311.612346	 57.060983	-202.474441	550.911795	311.305442	-358.994473	736.033876	171.674692	-359.645446	703.606435	1593.027725	-439.006592	731.366118	1538.230815	-113.361587	795.636676	1514.687436	-269.814822	659.280825	1594.466987	-284.719962	682.852448	1422.074448	-36.948186	605.080205	1350.825446	-57.526724	650.716325	1307.154436	-13.879235	640.809878	1212.337927	  4.681619	602.201973	1195.055355	-68.066582	613.364944	1553.534103	-534.461762	524.598757	1511.600967	-526.330187	539.684831	1485.704932	-602.736237	492.794840	1420.583673	-652.008815	431.928519	1417.885617	-601.982267	712.166008	1177.733730	-15.844574	888.071279	1197.519856	-120.825671	871.125168	1128.705073	-105.308398	525.458068	1298.821233	-629.241013	596.353501	1198.766040	-530.191871	540.718454	1170.558357	-557.000480	689.019927	156.010659	-436.137466	
472	  4.720000	734.087793	1055.963573	-438.750699	742.966506	1020.627511	-184.849169	560.792155	1130.643016	-345.464158	567.044938	1121.727761	-260.486105	646.846547	898.841218	-132.469563	654.544669	755.627639	-155.508468	544.269783	679.585642	-169.204262	699.803881	957.077747	-499.585101	813.375363	886.020031	-475.719097	810.370479	732.252218	-472.969332	487.869732	432.803979	-230.173531	395.755679	373.778066	-176.809799	364.764246	274.107330	-236.261398	872.209537	522.445952	-403.363153	782.501676	476.501764	-462.852248	758.547949	350.726808	-382.424984	187.413677	253.160053	-256.091309	337.841173	 80.015768	-280.629126	287.989840	 63.371751	-202.165220	578.629308	285.935279	-355.443223	774.324485	162.009818	-356.452586	703.381871	1598.301710	-439.863195	733.108407	1544.528986	-115.579735	795.794743	1520.268989	-272.625063	659.895065	1600.098869	-286.055886	684.416966	1429.469152	-38.346960	606.632533	1358.311680	-59.225410	651.841093	1314.923618	-14.783394	642.533275	1219.373646	  3.124185	603.549168	1202.169094	-69.579894	611.470261	1561.273611	-533.844221	522.635052	1520.674326	-524.297811	535.373584	1495.681333	-601.386568	486.246700	1431.267914	-650.075647	426.274906	1429.657746	-598.677806	713.946636	1185.880797	-18.423202	888.517185	1209.739476	-125.398860	872.863944	1140.628020	-110.257499	518.169820	1309.475183	-627.783199	590.413349	1209.010245	-529.518238	533.974932	1181.042837	-554.391418	727.555595	140.922562	-431.815845	
473	  4.730000	736.398734	1060.950540	-438.580039	745.721994	1025.000875	-185.669171	563.591826	1135.368209	-344.623736	570.597136	1127.255462	-259.535696	649.131901	902.818627	-132.950206	654.334491	759.662924	-157.506996	542.499459	685.496414	-168.640497	699.699554	960.229004	-499.458779	812.257539	887.541723	-475.916295	806.988502	732.842377	-470.326811	479.387921	440.164825	-230.407592	386.867682	383.255028	-175.687460	352.040922	284.817456	-234.984222	877.801925	522.127382	-402.431744	792.090106	468.210688	-461.580942	780.014857	340.848575	-380.681265	176.158073	272.436448	-252.481546	317.273736	 89.151110	-277.481824	265.927789	 72.316154	-202.715461	607.020235	260.938859	-352.154689	812.058909	153.331547	-353.077462	702.982889	1602.335229	-440.925949	734.611387	1549.800000	-117.685290	796.068719	1524.942634	-275.073572	660.451902	1604.743545	-287.549254	685.690554	1436.001838	-39.728331	607.806090	1364.720033	-60.730632	652.748795	1321.561924	-15.749354	643.710498	1225.486869	  2.042990	604.164913	1208.324116	-70.804609	609.680365	1567.176910	-533.600071	520.949051	1527.930347	-522.927293	531.762278	1503.535042	-600.486238	480.759702	1439.710862	-648.583742	421.515859	1439.074082	-596.081882	715.238888	1192.797817	-20.763521	888.221224	1219.654853	-129.765147	873.852182	1150.551569	-114.480472	512.261214	1318.034018	-626.546627	585.963031	1217.502628	-528.838599	528.875269	1189.679669	-551.912375	766.304817	126.714314	-427.326238	
474	  4.740000	738.432410	1065.187301	-438.469523	748.505937	1028.828775	-186.198346	566.027403	1139.376494	-343.805119	573.640038	1131.938473	-258.502244	652.059810	905.793390	-133.264471	655.714238	762.727794	-159.578172	542.953382	689.659607	-167.851076	698.868697	961.363823	-499.623105	810.596359	886.991122	-476.538833	802.063591	731.344861	-467.538002	472.484618	446.153816	-230.082045	378.587519	392.476006	-174.771557	339.118391	295.940150	-234.026065	881.210616	520.289630	-401.257128	800.741671	458.687282	-460.406631	800.304390	330.877156	-378.636150	163.889336	291.474588	-249.868901	296.593561	100.962181	-275.818641	245.218683	 84.475379	-203.585879	635.610420	236.374179	-349.304231	848.730267	146.169978	-349.375626	702.358730	1605.228197	-442.197037	735.896359	1554.067583	-119.601835	796.413976	1528.681298	-277.214308	660.988439	1608.333490	-289.124938	686.825147	1441.266499	-41.090268	608.696877	1369.873085	-62.051107	653.423398	1326.839675	-16.785259	644.329982	1230.574597	  1.319888	604.154263	1213.486058	-71.768687	607.941938	1571.273185	-533.746582	519.352065	1533.213083	-522.227383	528.774590	1509.057655	-600.045387	476.326299	1445.668425	-647.596977	417.668916	1445.822481	-594.279830	715.974480	1198.380000	-22.807384	887.231562	1226.973982	-133.915082	874.093803	1158.036300	-117.977098	507.801963	1324.257275	-625.600002	583.046054	1224.025663	-528.221057	525.335677	1196.250419	-549.673610	805.066352	113.987062	-422.666451	
